<?xml version="1.0" encoding="UTF-8" standalone="no"?>
<!DOCTYPE svg PUBLIC "-//W3C//DTD SVG 1.1//EN" "http://www.w3.org/Graphics/SVG/1.1/DTD/svg11.dtd">
<svg width="100%" height="100%" viewBox="0 0 2874 2928" version="1.1" xmlns="http://www.w3.org/2000/svg" xmlns:xlink="http://www.w3.org/1999/xlink" xml:space="preserve" xmlns:serif="http://www.serif.com/" style="fill-rule:evenodd;clip-rule:evenodd;stroke-linejoin:round;stroke-miterlimit:2;">
    <g transform="matrix(4.37233,0,0,4.37233,2862.56,1796.5)">
        <path d="M0,-276.338L0,-2.027C0,0.316 -0.978,2.636 -2.736,4.383C-4.465,6.127 -6.779,7.116 -9.12,7.102L-510.591,7.859C-514.915,7.855 -520.596,3.704 -520.596,-0.621L-520.596,-41.735L-56.54,-41.673L-56.54,-278.497L-39.806,-280.386L-8.592,-283.937C-6.304,-284.197 -4.158,-283.525 -2.541,-282.08C-0.92,-280.662 0,-278.599 0,-276.338" style="fill:white;fill-rule:nonzero;"/>
    </g>
    <g transform="matrix(4.37233,0,0,4.37233,2615.35,647.9)">
        <path d="M0,221.023L-424.252,220.793L-447.32,220.768L-447.32,51.932L0,1.115L0,221.023ZM14.225,-14.72C12.607,-16.165 10.431,-16.807 8.174,-16.548L-455.882,36.184C-460.431,36.704 -464.056,40.739 -464.056,45.285L-464.056,229.909C-464.056,234.26 -460.764,237.563 -456.413,237.565L-424.252,237.585L7.614,237.83C9.986,237.812 12.273,236.854 14.029,235.08C15.761,233.335 16.734,231.044 16.734,228.673L16.734,-8.948C16.734,-11.235 15.846,-13.276 14.225,-14.72" style="fill:white;fill-rule:nonzero;"/>
    </g>
    <g transform="matrix(4.37233,0,0,4.37233,455.151,724.027)">
        <path d="M0,202.667L42.338,202.667L42.338,210.515C42.338,214.831 38.807,218.362 34.491,218.362L-15.695,218.362C-20.051,218.362 -23.543,214.831 -23.543,210.515L-23.543,-14.243C-21.621,-13.694 -19.58,-13.38 -17.5,-13.38C-14.008,-13.38 -10.751,-14.204 -7.848,-15.695L-7.848,194.819C-7.848,199.136 -4.355,202.667 0,202.667" style="fill:white;fill-rule:nonzero;"/>
    </g>
    <g transform="matrix(4.37233,0,0,4.37233,595.179,483.934)">
        <path d="M0,7.848L44.914,7.848C47.081,7.848 48.837,6.091 48.837,3.924C48.837,1.758 47.081,0 44.914,0L0,0C-2.167,0 -3.924,1.758 -3.924,3.924C-3.924,6.091 -2.167,7.848 0,7.848" style="fill:white;fill-rule:nonzero;"/>
    </g>
    <g transform="matrix(4.37233,0,0,4.37233,1016.33,818.793)">
        <path d="M0,-108.234L-99.763,-108.234C-100.416,-108.41 -101.089,-108.534 -101.796,-108.534C-130.472,-108.529 -153.708,-85.293 -153.713,-56.616C-153.713,-52.281 -150.2,-48.768 -145.865,-48.768C-141.531,-48.768 -138.018,-52.281 -138.018,-56.616C-138.014,-66.644 -133.976,-75.65 -127.409,-82.23C-121.487,-88.14 -113.593,-91.972 -104.767,-92.688L-104.767,-92.538L-15.695,-92.538C-11.34,-92.538 -7.848,-89.007 -7.848,-84.691L-7.848,-7.548C-7.848,-3.192 -4.316,0.3 0,0.3C4.356,0.3 7.848,-3.192 7.848,-7.548L7.848,-100.386C7.848,-104.702 4.356,-108.234 0,-108.234" style="fill:white;fill-rule:nonzero;"/>
    </g>
    <g transform="matrix(4.37233,0,0,4.37233,571.245,605.563)">
        <path d="M0,-101.133C-51.521,-101.128 -93.278,-59.371 -93.283,-7.847C-93.283,-3.513 -89.77,0 -85.436,0C-81.102,0 -77.588,-3.513 -77.588,-7.847C-77.584,-29.299 -68.916,-48.646 -54.863,-62.712C-40.797,-76.765 -21.45,-85.434 0,-85.438C4.333,-85.438 7.847,-88.951 7.847,-93.285C7.847,-97.619 4.333,-101.133 0,-101.133Z" style="fill:rgb(16,253,73);fill-rule:nonzero;"/>
    </g>
    <g transform="matrix(4.37233,0,0,4.37233,571.245,605.567)">
        <path d="M0,-138.5C-72.16,-138.495 -130.645,-80.008 -130.65,-7.848C-130.65,-3.514 -127.137,0 -122.802,0C-118.468,0 -114.955,-3.514 -114.955,-7.848C-114.951,-39.618 -102.101,-68.307 -81.286,-89.135C-60.458,-109.95 -31.77,-122.801 0,-122.805C4.333,-122.805 7.847,-126.319 7.847,-130.652C7.847,-134.986 4.333,-138.5 0,-138.5" style="fill:white;fill-rule:nonzero;"/>
    </g>
    <g transform="matrix(4.37233,0,0,4.37233,586.347,1984.26)">
        <path d="M0,47.25L0,0.001C0,-14.381 7.191,-22.599 21.058,-22.599C34.926,-22.599 42.114,-14.381 42.114,0.001L42.114,7.704L28.761,7.704L28.761,-0.9C28.761,-7.318 25.937,-9.758 21.442,-9.758C16.95,-9.758 14.124,-7.318 14.124,-0.9L14.124,48.276C14.124,54.696 16.95,57.008 21.442,57.008C25.937,57.008 28.761,54.696 28.761,48.276L28.761,30.687L21.701,30.687L21.701,17.846L42.114,17.846L42.114,47.25C42.114,61.632 34.926,69.849 21.058,69.849C7.191,69.849 0,61.632 0,47.25" style="fill:rgb(16,253,73);fill-rule:nonzero;"/>
    </g>
    <g transform="matrix(4.37233,0,0,4.37233,1003.99,2021.31)">
        <path d="M0,30.303L-6.29,-14.123L-6.548,-14.123L-12.71,30.303L0,30.303ZM-15.406,-29.787L3.725,-29.787L18.363,60.09L4.239,60.09L1.669,42.242L1.669,42.501L-14.379,42.501L-16.947,60.09L-30.043,60.09L-15.406,-29.787Z" style="fill:rgb(16,253,73);fill-rule:nonzero;"/>
    </g>
    <g transform="matrix(4.37233,0,0,4.37233,1192.59,2284.05)">
        <path d="M0,-89.877L20.16,-89.877L29.148,-25.551L29.404,-25.551L38.392,-89.877L58.551,-89.877L58.551,0L45.196,0L45.196,-68.051L44.94,-68.051L34.669,0L22.855,0L12.585,-68.051L12.326,-68.051L12.326,0L0,0L0,-89.877Z" style="fill:rgb(16,253,73);fill-rule:nonzero;"/>
    </g>
    <g transform="matrix(4.37233,0,0,4.37233,1573.18,2284.05)">
        <path d="M0,-89.877L38.519,-89.877L38.519,-77.039L14.125,-77.039L14.125,-53.285L33.512,-53.285L33.512,-40.444L14.125,-40.444L14.125,-12.841L38.519,-12.841L38.519,0L0,0L0,-89.877Z" style="fill:rgb(16,253,73);fill-rule:nonzero;"/>
    </g>
    <g transform="matrix(4.37233,0,0,4.37233,1903.82,2227.92)">
        <path d="M0,-64.201L-14.766,-64.201L-14.766,-77.039L28.889,-77.039L28.889,-64.201L14.123,-64.201L14.123,12.838L0,12.838L0,-64.201Z" style="fill:white;fill-rule:nonzero;"/>
    </g>
    <g transform="matrix(4.37233,0,0,4.37233,-1686.28,532.593)">
        <rect x="874.757" y="310.7" width="14.126" height="89.877" style="fill:white;"/>
    </g>
    <g transform="matrix(4.37233,0,0,4.37233,2324.81,2284.05)">
        <path d="M0,-89.877L20.159,-89.877L29.147,-25.551L29.403,-25.551L38.392,-89.877L58.551,-89.877L58.551,0L45.196,0L45.196,-68.051L44.94,-68.051L34.67,0L22.855,0L12.585,-68.051L12.326,-68.051L12.326,0L0,0L0,-89.877Z" style="fill:white;fill-rule:nonzero;"/>
    </g>
    <g transform="matrix(4.37233,0,0,4.37233,2705.42,2284.05)">
        <path d="M0,-89.877L38.522,-89.877L38.522,-77.039L14.126,-77.039L14.126,-53.285L33.512,-53.285L33.512,-40.444L14.126,-40.444L14.126,-12.841L38.522,-12.841L38.522,0L0,0L0,-89.877Z" style="fill:white;fill-rule:nonzero;"/>
    </g>
    <g transform="matrix(4.37233,0,0,4.37233,586.347,2510.04)">
        <path d="M0,64.575L0,57.557L18.25,57.557L18.25,65.978C18.25,74.754 22.112,77.913 28.252,77.913C34.393,77.913 38.256,74.754 38.256,65.629C38.256,55.451 34.393,48.957 21.763,37.901C5.612,23.689 0.35,13.686 0.35,-0.355C0.35,-19.657 10.353,-30.888 29.131,-30.888C47.909,-30.888 57.212,-19.657 57.212,-0.001L57.212,5.086L38.955,5.086L38.955,-1.233C38.955,-10.004 35.45,-13.339 29.309,-13.339C23.162,-13.339 19.656,-10.004 19.656,-1.583C19.656,7.367 23.69,13.861 36.328,24.917C52.471,39.129 57.562,48.957 57.562,64.225C57.562,84.231 47.38,95.463 28.431,95.463C9.475,95.463 0,84.231 0,64.575" style="fill:rgb(16,253,73);fill-rule:nonzero;"/>
    </g>
    <g transform="matrix(4.37233,0,0,4.37233,988.373,2506.96)">
        <path d="M0,65.983L0,0C0,-18.954 9.824,-30.184 28.423,-30.184C47.03,-30.184 56.854,-18.954 56.854,0L56.854,12.983L38.605,12.983L38.605,-1.229C38.605,-9.3 34.742,-12.635 28.952,-12.635C23.161,-12.635 19.299,-9.3 19.299,-1.229L19.299,67.385C19.299,75.458 23.161,78.617 28.952,78.617C34.742,78.617 38.605,75.458 38.605,67.385L38.605,48.608L56.854,48.608L56.854,65.983C56.854,84.935 47.03,96.167 28.423,96.167C9.824,96.167 0,84.935 0,65.983" style="fill:rgb(16,253,73);fill-rule:nonzero;"/>
    </g>
    <g transform="matrix(4.37233,0,0,4.37233,1562.28,2504.67)">
        <path d="M0,67.032L0,-0.004C0,-8.776 -3.863,-12.111 -10.003,-12.111C-16.15,-12.111 -20.006,-8.776 -20.006,-0.004L-20.006,67.032C-20.006,75.806 -16.15,79.141 -10.003,79.141C-3.863,79.141 0,75.806 0,67.032M-39.313,65.803L-39.313,1.227C-39.313,-18.429 -28.959,-29.659 -10.003,-29.659C8.946,-29.659 19.299,-18.429 19.299,1.227L19.299,65.803C19.299,85.46 8.946,96.691 -10.003,96.691C-28.959,96.691 -39.313,85.46 -39.313,65.803" style="fill:rgb(16,253,73);fill-rule:nonzero;"/>
    </g>
    <g transform="matrix(4.37233,0,0,4.37233,1925.88,2689.58)">
        <path d="M0,-17.552C7.197,-17.552 11.588,-20.708 11.588,-30.536L11.588,-40.014C11.588,-48.785 8.604,-52.649 1.756,-52.649L-7.019,-52.649L-7.019,-17.552L0,-17.552ZM-26.317,-70.195L2.285,-70.195C22.291,-70.195 30.887,-60.895 30.887,-41.942L30.887,-34.395C30.887,-21.761 26.853,-13.69 18.257,-10.18L18.257,-9.83C27.902,-6.846 31.065,2.279 31.065,16.141L31.065,37.728C31.065,43.694 31.237,48.081 33.172,52.643L13.516,52.643C12.459,49.484 11.76,47.552 11.76,37.553L11.76,15.092C11.76,3.681 8.425,-0.002 -0.35,-0.002L-7.019,-0.002L-7.019,52.643L-26.317,52.643L-26.317,-70.195Z" style="fill:rgb(16,253,73);fill-rule:nonzero;"/>
    </g>
    <g transform="matrix(4.37233,0,0,4.37233,2227.41,2919.75)">
        <path d="M0,-122.838L52.643,-122.838L52.643,-105.292L19.299,-105.292L19.299,-72.826L45.803,-72.826L45.803,-55.276L19.299,-55.276L19.299,-17.55L52.643,-17.55L52.643,0L0,0L0,-122.838Z" style="fill:rgb(16,253,73);fill-rule:nonzero;"/>
    </g>
    <g transform="matrix(4.37233,0,0,4.37233,2600.28,2510.04)">
        <path d="M0,64.575L0,57.557L18.249,57.557L18.249,65.978C18.249,74.754 22.111,77.913 28.252,77.913C34.393,77.913 38.255,74.754 38.255,65.629C38.255,55.451 34.393,48.957 21.755,37.901C5.611,23.689 0.35,13.686 0.35,-0.355C0.35,-19.657 10.353,-30.888 29.13,-30.888C47.908,-30.888 57.204,-19.657 57.204,-0.001L57.204,5.086L38.955,5.086L38.955,-1.233C38.955,-10.004 35.441,-13.339 29.302,-13.339C23.161,-13.339 19.648,-10.004 19.648,-1.583C19.648,7.367 23.689,13.861 36.32,24.917C52.471,39.129 57.554,48.957 57.554,64.225C57.554,84.231 47.38,95.463 28.424,95.463C9.474,95.463 0,84.231 0,64.575" style="fill:rgb(16,253,73);fill-rule:nonzero;"/>
    </g>
    <g transform="matrix(4.37233,0,0,4.37233,1001.56,1225.43)">
        <path d="M0,3.015L2.577,6.275L2.577,53.512C1.716,58.007 -0.429,60.799 -3.843,61.887L-7.659,48.48L-7.659,13.382L0,3.015ZM-7.659,-10.018L-7.659,-58.872L-3.843,-58.872C-0.429,-58.095 1.716,-55.498 2.577,-51.085L2.577,-3.848L0,-0.352L-7.659,-10.018ZM-7.659,-5.004L-2.565,1.449L-7.659,8.368L-39.649,9.636L-44.405,3.363L-39.649,-3.344L-7.659,-5.004ZM-39.649,-48.03L-39.649,-8.211L-46.767,1.86L-49.119,-1.244L-49.119,-47.872L-44.384,-54.142L-39.649,-48.03Z" style="fill:rgb(16,253,73);fill-rule:nonzero;"/>
    </g>
    <g transform="matrix(4.37233,0,0,4.37233,1274.79,1271.52)">
        <path d="M0,-24.522L0,-61.876L4.324,-76.543C8.193,-75.739 10.625,-72.988 11.601,-68.295L11.601,-17.99L8.679,-14.259L0,-24.522ZM0,-19.186L5.773,-12.334L0,-4.954L-36.167,-3.521L-41.533,-10.169L-36.167,-17.309L0,-19.186ZM-2.864,-61.623L-46.351,-58.683L-46.714,-62.857C-45.833,-67.493 -43.621,-70.564 -40.063,-72.064L1.437,-76.252L-2.864,-61.623ZM5.773,52.021L-40.196,51.59C-43.753,50.417 -45.966,47.551 -46.847,42.993L-36.167,37.841L1.437,37.733L5.773,52.021ZM-46.847,39.579L-46.847,-4.805L-44.196,-8.335L-36.167,1.65L-36.167,34.394L-46.847,39.579Z" style="fill:rgb(16,253,73);fill-rule:nonzero;"/>
    </g>
    <g transform="matrix(4.37233,0,0,4.37233,1595.12,1244.23)">
        <path d="M0,-16.746L6.526,-9.48L0,-1.617L-40.793,0L-46.832,-7.038L-40.793,-14.629L0,-16.746Z" style="fill:rgb(16,253,73);fill-rule:nonzero;"/>
    </g>
    <g transform="matrix(4.37233,0,0,4.37233,1958.58,1247.08)">
        <path d="M0,-27.766L0,-70.151L5.567,-86.859C10.557,-86.006 13.694,-82.918 14.954,-77.6L14.954,-20.445L11.185,-16.185L0,-27.766ZM0,-21.711L7.435,-13.977L0,-5.563L-46.37,-3.725L-53.215,-11.202L-46.37,-19.305L0,-21.711ZM-3.688,-69.824L-59.819,-66.056L-59.819,-70.628C-58.697,-75.873 -55.878,-79.37 -51.341,-81.117L1.85,-86.484L-3.688,-69.824ZM7.435,59.093L-51.512,58.54C-56.048,57.211 -58.867,53.974 -59.988,48.829L-46.37,43.01L1.85,42.872L7.435,59.093ZM-59.988,44.975L-59.988,-5.112L-56.61,-9.115L-46.37,2.116L-46.37,39.115L-59.988,44.975Z" style="fill:rgb(16,253,73);fill-rule:nonzero;"/>
    </g>
    <g transform="matrix(4.37233,0,0,4.37233,2468.86,1157.11)">
        <path d="M0,3.797L4.393,8.01L4.393,69.717C2.925,75.587 -0.732,79.227 -6.542,80.633L-13.022,63.156L-13.022,17.436L0,3.797ZM-13.022,-13.045L-13.022,-58.765L-6.542,-76.836C-0.732,-75.958 2.925,-72.652 4.393,-66.921L4.393,-5.213L0,-0.599L-13.022,-13.045ZM-13.022,-6.514L-4.368,1.799L-13.022,10.904L-66.827,13.037L-74.744,5.02L-66.827,-3.722L-13.022,-6.514ZM-17.312,-58.385L-66.628,-54.013L-82.378,-58.829C-81.081,-64.475 -77.823,-68.258 -72.578,-70.173L-10.871,-76.399L-17.312,-58.385ZM-10.871,80.593L-72.775,80.012C-78.02,78.58 -81.277,75.098 -82.573,69.568L-82.573,63.311L-17.312,63.168L-10.871,80.593Z" style="fill:rgb(16,253,73);fill-rule:nonzero;"/>
    </g>
</svg>
